<?xml version="1.0" standalone="no"?>
<!DOCTYPE svg PUBLIC "-//W3C//DTD SVG 20010904//EN"
 "http://www.w3.org/TR/2001/REC-SVG-20010904/DTD/svg10.dtd">
<svg version="1.0" xmlns="http://www.w3.org/2000/svg"
 width="1392.000000pt" height="1392.000000pt" viewBox="0 0 1392.000000 1392.000000"
 preserveAspectRatio="xMidYMid meet">
<metadata>
Created by potrace 1.11, written by Peter Selinger 2001-2013
</metadata>
<g transform="translate(0.000000,1392.000000) scale(0.100000,-0.100000)"
fill="#000000" stroke="none">
<path d="M1549 13916 c-2 -2 -31 -7 -64 -11 -269 -30 -559 -146 -796 -320
-211 -154 -395 -376 -514 -619 -89 -182 -138 -346 -163 -546 -4 -30 -7 -2494
-7 -5475 0 -5124 1 -5426 18 -5522 92 -534 422 -986 902 -1235 136 -71 329
-137 465 -159 36 -6 76 -13 90 -17 43 -10 10848 -11 10930 -1 62 8 137 21 241
44 9 2 58 17 110 35 423 141 779 452 983 857 67 134 132 334 151 468 4 22 9
51 13 65 4 14 8 2464 9 5445 2 5543 2 5452 -31 5635 -42 227 -158 481 -315
690 -107 143 -317 334 -461 419 -167 99 -391 188 -540 214 -41 8 -93 18 -125
25 -32 6 -10889 15 -10896 8z"/>
</g>
</svg>
